<?xml version="1.0" encoding="UTF-8" standalone="no"?>
<!DOCTYPE svg PUBLIC "-//W3C//DTD SVG 1.1//EN" "http://www.w3.org/Graphics/SVG/1.1/DTD/svg11.dtd">
<svg width="1680.00" height="1464.00" viewBox="0.00 0.00 7000.00 6100.00" xmlns="http://www.w3.org/2000/svg" xmlns:xlink="http://www.w3.org/1999/xlink">
<g stroke-linecap="round" id="Capa_3">
<path d="M6626.68,3230.47 C6624.89,3233.86 6615.90,3250.13 6616.28,3249.46 C6616.80,3248.55 6617.31,3247.64 6617.83,3246.72 C6618.34,3245.81 6575.54,3321.82 6557.70,3353.77 C6542.41,3382.51 6512.61,3439.72 6498.10,3468.18 C6483.67,3497.51 6456.69,3553.40 6444.15,3579.97 C6431.42,3607.84 6405.01,3666.99 6391.34,3698.28 C6379.58,3726.29 6356.30,3782.50 6344.78,3810.71 C6332.63,3841.11 6308.33,3902.86 6296.17,3934.22 C6284.31,3965.84 6261.07,4028.85 6249.69,4060.24 C6238.26,4092.63 6216.07,4156.02 6205.31,4187.02 C6196.03,4213.94 6175.94,4272.77 6165.13,4304.68 C6160.15,4319.67 6151.06,4347.35 6146.95,4360.04 C6142.81,4373.36 6134.40,4401.03 6130.12,4415.36 C6121.40,4446.50 6103.86,4510.96 6095.02,4544.27 C6091.63,4557.88 6084.17,4588.52 6080.76,4605.78 C6078.53,4618.54 6076.02,4642.51 6076.08,4642.81 C6076.34,4644.13 6077.45,4646.23 6078.29,4647.28" fill="none" stroke="rgb(0, 0, 0)" stroke-width="44.05" stroke-opacity="1.00" stroke-linejoin="round"/>
<path d="M4847.10,1734.95" fill="none" stroke="rgb(0, 0, 0)" stroke-width="44.05" stroke-opacity="1.00" stroke-linejoin="round"/>
<path d="M5100.48,4021.33 C5101.28,4022.91 5103.63,4024.58 5106.24,4025.11 C5108.06,4025.46 5128.74,4020.82 5129.29,4020.53 C5139.85,4014.98 5163.31,4002.02 5182.11,3990.49 C5210.22,3972.55 5265.50,3936.63 5292.67,3918.65 C5314.69,3902.87 5362.92,3866.19 5388.02,3846.29 C5400.23,3836.33 5424.71,3816.09 5436.97,3805.80 C5460.94,3784.88 5507.85,3741.89 5530.99,3720.39 C5542.33,3709.54 5564.74,3687.77 5575.80,3676.85 C5586.80,3665.60 5608.87,3642.71 5619.93,3631.08 C5630.18,3619.88 5650.83,3596.96 5661.24,3585.24 C5671.04,3573.75 5690.41,3549.68 5699.61,3537.53 C5708.54,3525.33 5723.51,3502.48 5734.03,3484.51 C5742.31,3469.44 5759.24,3436.71 5762.96,3427.92 C5767.03,3418.24 5778.38,3380.44 5780.26,3372.50 C5781.21,3368.49 5784.94,3349.01 5786.23,3341.16 C5788.16,3328.43 5790.68,3298.18 5791.28,3279.28 C5791.35,3263.96 5789.76,3227.85 5788.64,3216.41 C5787.31,3204.57 5782.03,3171.66 5779.08,3156.86 C5776.53,3145.13 5765.59,3105.04 5763.49,3098.07 C5758.77,3082.82 5748.30,3056.15 5742.88,3042.91 C5736.37,3027.78 5722.92,2997.35 5715.92,2982.55 C5708.54,2967.83 5692.95,2938.94 5684.97,2924.98 C5669.88,2898.96 5640.53,2851.33 5622.27,2823.11 C5607.79,2801.42 5577.84,2756.89 5562.36,2734.07 C5541.57,2704.04 5500.55,2645.26 5480.32,2616.50 C5464.26,2593.87 5430.32,2546.14 5412.43,2521.03 C5392.78,2493.55 5353.04,2438.03 5332.96,2409.99 C5312.93,2382.08 5272.91,2326.34 5252.91,2298.51 C5232.51,2270.18 5191.70,2213.56 5171.28,2185.26 C5150.86,2156.98 5110.96,2101.77 5091.48,2074.83 C5074.33,2051.10 5042.36,2006.86 5027.54,1986.36 C5005.00,1955.17 4966.57,1902.00 4950.68,1880.02 C4934.79,1858.52 4897.76,1809.11 4876.62,1781.19 C4857.38,1756.09 4831.96,1722.99 4824.13,1713.98 C4821.45,1710.74 4809.93,1695.60 4805.07,1689.14 C4804.35,1688.18 4803.60,1687.19 4803.60,1687.20" fill="none" stroke="rgb(0, 0, 0)" stroke-width="44.05" stroke-opacity="1.00" stroke-linejoin="round"/>
<path d="M5210.70,3986.49 C5210.20,3986.98 5209.70,3987.47 5209.20,3987.97 C5204.23,3992.88 5192.15,4001.81 5185.46,4005.55 C5178.68,4009.29 5166.24,4014.03 5159.25,4015.98 C5152.80,4017.77 5137.11,4020.59 5129.29,4021.20 C5123.14,4021.64 5103.94,4022.09 5099.49,4021.17 C5094.36,4020.07 5083.17,4015.14 5077.65,4011.87 C5071.42,4008.14 5062.08,3999.60 5055.04,3992.53 C5041.72,3978.60 5023.14,3957.18 5013.52,3944.60 C5004.54,3932.34 4986.30,3905.97 4978.09,3893.54 C4969.97,3880.83 4953.57,3854.59 4945.30,3841.08 C4937.30,3827.47 4922.25,3800.60 4914.70,3786.91 C4907.27,3772.93 4892.77,3745.17 4885.70,3731.38 C4878.81,3717.43 4865.15,3689.24 4858.37,3674.99 C4851.90,3660.69 4839.14,3631.78 4832.84,3617.17 C4826.69,3602.34 4814.74,3572.96 4808.93,3558.41 C4798.05,3529.27 4776.95,3471.16 4766.73,3442.18 C4761.73,3427.45 4751.83,3397.77 4746.92,3382.81 C4742.26,3367.90 4733.06,3337.77 4728.51,3322.55 C4724.05,3307.05 4715.36,3276.22 4711.13,3260.90 C4707.21,3245.88 4699.48,3215.64 4695.67,3200.41 C4692.02,3185.08 4684.97,3154.54 4681.56,3139.33 C4678.35,3124.00 4672.04,3093.06 4668.95,3077.44 C4666.07,3061.85 4660.64,3030.99 4658.08,3015.72 C4655.71,3000.33 4651.15,2969.42 4648.94,2953.92 C4646.91,2938.59 4643.06,2907.98 4641.24,2892.69 C4638.00,2861.76 4632.12,2799.95 4629.47,2769.07 C4627.34,2737.70 4623.69,2675.12 4622.17,2643.91 C4621.24,2612.36 4619.93,2549.66 4619.54,2518.50 C4619.66,2487.07 4620.50,2424.58 4621.23,2393.52 C4621.83,2377.82 4623.26,2346.33 4624.08,2330.53 C4625.17,2314.81 4627.65,2283.37 4629.03,2267.65 C4630.67,2251.59 4634.12,2219.63 4635.92,2203.74 C4637.88,2188.20 4641.98,2157.36 4644.13,2142.07 C4646.44,2126.83 4651.42,2096.21 4654.07,2080.82 C4657.20,2064.90 4664.06,2032.09 4667.78,2015.22 C4671.82,1998.35 4679.36,1967.46 4682.85,1953.44 C4688.12,1933.28 4696.15,1907.35 4700.22,1894.92 C4705.32,1880.22 4715.78,1850.80 4721.61,1836.10 C4728.98,1818.55 4739.24,1796.67 4747.88,1780.10 C4751.60,1773.45 4760.38,1758.70 4762.37,1755.67 C4766.73,1749.07 4777.13,1735.47 4781.45,1730.79 C4787.23,1724.58 4797.40,1716.61 4802.36,1714.07 C4805.29,1712.61 4811.58,1711.57 4815.34,1711.60 C4822.54,1711.76 4829.86,1716.78 4835.74,1721.13 C4837.26,1722.29 4839.42,1723.09 4843.69,1726.72 C4852.59,1734.40 4854.62,1736.69 4863.42,1748.19 C4873.71,1761.83 4908.10,1814.37 4918.83,1830.90" fill="none" stroke="rgb(0, 0, 0)" stroke-width="44.05" stroke-opacity="1.00" stroke-linejoin="round"/>
<path d="M4926.94,4010.88 C4926.22,4008.42 4924.24,4001.95 4923.03,3999.42 C4921.44,3996.13 4917.89,3991.03 4917.14,3989.95 C4913.55,3994.25 4911.49,3997.36 4910.50,4000.63 C4901.62,4030.70 4882.22,4095.15 4871.69,4129.53 C4867.42,4142.93 4860.99,4163.05 4859.83,4164.73 C4862.37,4149.83 4868.40,4116.19 4872.00,4102.16 C4873.86,4095.46 4878.45,4080.59 4880.89,4074.71 C4882.39,4071.19 4884.37,4068.45 4887.21,4065.46 C4887.21,4065.46 4894.65,4086.39 4894.65,4086.39 C4896.33,4083.78 4901.08,4076.56 4902.04,4075.83 C4903.28,4074.90 4905.06,4074.68 4906.04,4075.07 C4909.80,4090.87 4914.26,4120.34 4914.39,4121.41 C4914.65,4123.54 4915.06,4124.44 4916.20,4125.77 C4917.97,4123.39 4920.10,4118.89 4921.59,4114.56 C4922.98,4110.41 4925.55,4103.69 4926.79,4101.25 C4928.39,4098.23 4931.62,4098.13 4932.93,4098.56 C4934.81,4101.87 4936.12,4105.54 4937.01,4110.45 C4938.75,4120.31 4942.36,4144.07 4942.54,4145.28 C4942.54,4145.28 4949.33,4127.21 4949.33,4127.21 C4950.00,4128.25 4951.83,4131.10 4951.83,4131.81 C4951.83,4132.27 4951.51,4133.16 4950.89,4134.47 C4949.22,4134.79 4948.14,4134.27 4946.65,4132.03 C4943.18,4126.87 4939.54,4121.62 4939.30,4120.32 C4939.08,4119.08 4939.90,4115.50 4939.90,4114.56 C4939.91,4113.44 4939.08,4110.61 4938.42,4108.78 C4941.74,4112.36 4944.07,4115.49 4945.31,4118.95 C4946.75,4123.10 4949.34,4134.97 4949.87,4137.52" fill="none" stroke="rgb(255, 255, 255)" stroke-width="44.05" stroke-opacity="1.00" stroke-linejoin="round"/>
<path d="M4955.30,4109.39 C4953.88,4106.27 4953.00,4104.20 4952.06,4101.85 C4945.41,4084.52 4936.33,4058.38 4934.68,4054.70 C4933.92,4053.03 4932.72,4052.28 4930.05,4051.46 C4928.11,4054.54 4926.81,4058.01 4926.02,4062.89 C4924.43,4073.04 4921.20,4097.78 4921.03,4099.04 C4921.03,4099.04 4926.32,4071.21 4926.32,4071.21 C4926.32,4071.21 4926.77,4090.35 4926.77,4090.35 C4924.82,4089.89 4921.49,4086.92 4919.13,4086.92 C4919.06,4086.92 4908.09,4089.22 4905.79,4089.38 C4903.79,4089.51 4901.52,4089.26 4900.12,4088.75 C4897.97,4087.91 4893.78,4083.72 4891.24,4081.23 C4889.96,4079.94 4885.38,4071.97 4883.61,4069.62 C4883.61,4069.62 4884.31,4068.63 4884.31,4068.63 C4880.31,4064.39 4876.47,4060.97 4873.52,4060.44 C4868.09,4059.52 4864.37,4058.02 4860.62,4055.71 C4857.98,4054.05 4850.85,4048.97 4848.71,4046.95 C4846.52,4044.83 4844.46,4040.77 4843.78,4037.85 C4844.15,4036.80 4845.56,4035.51 4847.14,4035.20 C4848.45,4034.95 4858.51,4036.32 4862.11,4036.85 C4863.29,4035.74 4863.38,4034.82 4862.18,4032.67 C4860.19,4029.05 4857.54,4024.24 4856.88,4023.06 C4856.88,4023.06 4875.67,4042.38 4875.67,4042.38 C4874.45,4041.06 4871.59,4038.41 4866.76,4034.16 C4861.62,4029.77 4860.42,4029.08 4857.88,4028.01 C4857.88,4028.01 4856.82,4029.16 4856.82,4029.16 C4856.82,4029.16 4858.69,4033.74 4858.69,4033.74 C4858.69,4033.74 4855.26,4026.79 4855.26,4026.79 C4874.69,4048.17 4914.22,4094.02 4933.00,4115.87 C4938.08,4122.03 4948.92,4135.42 4951.22,4139.56 C4951.67,4140.36 4953.31,4143.94 4953.75,4144.68 C4954.45,4145.84 4956.75,4148.27 4958.25,4149.39 C4959.06,4149.99 4964.78,4153.59 4965.76,4154.43" fill="none" stroke="rgb(255, 255, 255)" stroke-width="44.05" stroke-opacity="1.00" stroke-linejoin="round"/>
<path d="M4848.46,3966.21 C4848.83,3966.88 4849.85,3968.73 4850.49,3969.89 C4857.90,3982.96 4867.13,3999.56 4868.96,4003.08 C4869.71,4004.41 4876.97,4008.03 4878.55,4009.92 C4887.85,4020.95 4907.84,4045.30 4918.20,4058.61 C4923.23,4065.28 4932.64,4077.95 4937.03,4083.96 C4942.61,4091.90 4948.29,4100.93 4951.26,4108.12 C4953.56,4113.80 4958.21,4130.12 4958.51,4137.22 C4958.64,4140.72 4958.07,4147.43 4957.21,4150.68 C4955.39,4157.32 4949.99,4167.55 4944.36,4175.72 C4940.35,4181.41 4933.90,4188.67 4926.94,4195.62 C4923.93,4198.55 4913.70,4207.73 4909.25,4211.69 C4899.47,4220.30 4869.06,4242.68 4857.78,4250.71 C4831.94,4268.58 4776.00,4306.93 4745.91,4327.42 C4719.36,4345.36 4665.06,4381.73 4637.32,4400.16 C4613.08,4415.78 4563.53,4447.27 4538.21,4463.14 C4510.50,4480.20 4454.11,4514.75 4425.43,4532.24 C4395.88,4550.03 4338.95,4584.12 4311.57,4600.41 C4299.55,4607.40 4269.98,4624.25 4256.57,4631.46 C4245.83,4636.81 4224.43,4646.70 4206.72,4654.04 C4190.54,4660.43 4156.36,4673.74 4147.10,4677.04 C4138.43,4680.01 4133.16,4681.50 4121.51,4683.94 C4105.93,4686.71 4072.02,4692.50 4053.69,4695.53 C4031.08,4699.26 4024.78,4699.97 3997.89,4701.66 C3988.86,4702.22 3973.48,4703.20 3967.13,4703.61 C3956.52,4704.35 3922.37,4703.66 3907.14,4703.33 C3904.83,4703.29 3850.48,4698.24 3847.72,4697.83 C3828.54,4695.02 3799.62,4689.83 3785.14,4685.89 C3779.04,4684.20 3769.39,4681.83 3764.52,4679.58 C3755.88,4675.55 3743.66,4671.85 3743.23,4671.64 C3730.56,4665.41 3701.81,4650.92 3685.73,4642.65 C3671.04,4634.83 3643.21,4619.83 3630.07,4612.64 C3612.32,4602.51 3594.75,4591.23 3588.53,4587.46 C3575.99,4580.11 3539.04,4558.37 3532.78,4554.33 C3531.20,4553.31 3518.06,4544.36 3514.87,4542.84 C3514.87,4542.83 3461.39,4510.76 3442.16,4499.23 C3420.83,4486.43 3376.05,4459.57 3352.61,4445.51 C3327.06,4430.19 3273.86,4398.27 3246.21,4381.68 C3216.45,4363.83 3154.84,4326.86 3122.97,4307.74 C3089.01,4287.36 3018.97,4245.33 2982.90,4223.69 C2944.82,4200.84 2869.48,4155.63 2832.23,4133.27 C2797.07,4112.17 2728.85,4071.24 2695.79,4051.40 C2664.83,4032.83 2605.02,3996.94 2576.16,3979.62 C2549.41,3963.57 2498.00,3932.73 2473.34,3917.93 C2450.79,3904.40 2407.78,3878.60 2387.33,3866.33 C2368.97,3855.32 2330.64,3832.33 2310.65,3820.35 C2301.86,3814.95 2296.81,3811.93 2295.08,3811.99 C2295.26,3811.52 2295.59,3811.15 2295.51,3810.99 C2295.38,3810.72 2293.62,3808.14 2292.99,3807.20 C2292.99,3807.20 2291.50,3805.54 2291.50,3805.54 C2291.50,3805.54 2286.63,3801.00 2286.63,3801.00 C2286.63,3801.00 2285.70,3800.15 2285.70,3800.15 C2272.52,3788.36 2256.50,3773.05 2243.54,3759.45 C2232.68,3747.62 2212.03,3723.76 2202.49,3712.01 C2193.01,3699.90 2177.07,3678.22 2166.41,3662.29 C2158.01,3649.17 2142.04,3622.35 2134.56,3608.59 C2127.27,3594.50 2113.55,3566.35 2107.09,3552.35 C2100.95,3538.19 2089.19,3510.16 2083.58,3496.29 C2078.04,3481.22 2066.01,3447.26 2062.75,3436.85 C2058.28,3421.88 2050.39,3392.33 2047.10,3377.54 C2044.08,3362.46 2039.66,3335.96 2037.36,3316.28 C2035.84,3300.33 2034.25,3274.43 2034.20,3252.21 C2034.77,3229.47 2036.87,3204.38 2039.09,3188.85 C2040.35,3181.16 2043.30,3166.09 2045.18,3158.75 C2047.19,3151.41 2051.72,3136.82 2054.20,3129.60 C2058.02,3119.15 2061.05,3111.72 2065.64,3101.50 C2068.92,3094.53 2075.90,3080.75 2079.55,3074.05 C2083.26,3067.48 2091.39,3054.73 2095.65,3048.45 C2106.37,3033.29 2121.39,3014.73 2134.75,3000.09 C2149.46,2984.61 2165.88,2969.44 2180.76,2956.70 C2192.87,2946.53 2213.49,2930.66 2226.98,2921.97 C2238.10,2915.08 2266.00,2898.89 2279.23,2891.31 C2294.35,2882.90 2324.67,2866.39 2339.85,2858.29 C2367.86,2844.00 2425.01,2816.13 2454.10,2802.09 C2481.95,2788.32 2538.41,2760.10 2567.02,2745.65 C2596.15,2730.66 2653.18,2701.02 2681.08,2686.38 C2709.40,2671.20 2766.20,2640.21 2794.69,2624.39 C2824.30,2607.24 2877.91,2575.65 2901.92,2561.20 C2918.00,2551.00 2939.95,2536.14 2954.51,2525.42 C2965.27,2517.39 2988.57,2499.26 3000.64,2489.80 C3016.37,2476.77 3036.00,2459.08 3047.48,2448.30 C3058.50,2437.57 3081.06,2415.05 3093.24,2402.13 C3102.38,2392.08 3113.63,2379.74 3129.76,2360.56 C3131.35,2358.62 3157.87,2324.04 3168.38,2310.28 C3180.80,2293.46 3218.55,2237.87 3219.48,2235.96 C3220.51,2233.81 3224.96,2222.06 3229.89,2212.39 C3235.24,2201.69 3241.10,2188.60 3242.28,2184.48 C3242.59,2183.40 3242.44,2181.99 3244.03,2177.87 C3250.21,2162.11 3261.47,2132.69 3266.55,2119.03 C3272.12,2103.54 3282.35,2072.61 3286.93,2057.39 C3291.37,2041.82 3299.61,2012.42 3303.42,1998.58 C3306.60,1986.38 3313.05,1960.70 3316.96,1943.07 C3323.10,1912.21 3335.44,1847.82 3341.64,1814.29 C3347.35,1781.28 3357.90,1717.08 3362.73,1685.88 C3364.73,1671.47 3368.51,1642.88 3370.29,1628.70 C3374.03,1595.00 3380.73,1531.30 3383.71,1501.32 C3386.88,1467.12 3393.38,1400.08 3396.71,1367.24 C3398.43,1352.51 3402.51,1319.87 3404.87,1301.95 C3407.71,1283.69 3413.50,1249.04 3416.48,1233.87 C3419.25,1220.29 3424.48,1195.21 3426.93,1183.72 C3432.06,1161.59 3437.95,1140.02 3442.94,1124.38 C3445.40,1116.97 3458.81,1082.22 3464.58,1067.63 C3467.20,1061.31 3473.44,1047.43 3476.42,1040.92 C3482.74,1028.07 3499.15,1000.36 3507.72,986.25 C3509.43,983.50 3513.81,976.50 3513.91,976.36 C3514.93,974.88 3517.42,971.52 3518.63,969.96" fill="none" stroke="rgb(0, 0, 0)" stroke-width="44.05" stroke-opacity="1.00" stroke-linejoin="round"/>
<path d="M3142.91,1440.51 C3125.88,1468.48 3095.90,1517.63 3093.66,1520.82 C3091.31,1524.14 3085.33,1529.67 3080.85,1536.25 C3069.40,1553.21 3045.01,1589.34 3032.07,1608.51 C3017.64,1629.89 2987.29,1674.86 2971.38,1698.45 C2953.98,1724.24 2917.68,1778.05 2898.79,1806.05 C2878.42,1836.27 2836.17,1898.90 2814.31,1931.33 C2790.96,1965.96 2742.86,2037.29 2718.11,2074.00 C2694.02,2109.73 2647.33,2178.97 2624.74,2212.49 C2603.64,2243.78 2562.93,2304.16 2543.32,2333.25 C2525.21,2360.11 2490.48,2411.62 2473.87,2436.27 C2458.74,2458.70 2429.99,2501.35 2416.36,2521.57 C2410.11,2530.84 2397.98,2548.84 2392.10,2557.56 C2386.59,2565.73 2379.52,2576.22 2370.91,2591.14 C2364.46,2602.56 2350.72,2629.81 2349.70,2632.35 C2347.49,2637.92 2346.58,2643.98 2346.81,2646.66 C2346.97,2648.30 2347.98,2652.70 2348.62,2654.32 C2349.43,2656.35 2350.99,2658.60 2352.36,2659.85 C2355.10,2662.20 2360.50,2664.55 2363.89,2665.04 C2369.94,2665.83 2383.35,2665.39 2392.58,2664.25 C2400.37,2663.19 2412.68,2660.85 2422.16,2658.50 C2438.90,2653.94 2465.47,2644.90 2480.62,2639.41 C2491.64,2635.30 2515.52,2625.40 2534.60,2616.24 C2561.78,2602.09 2618.49,2571.94 2648.02,2555.93 C2661.76,2548.23 2688.88,2532.86 2702.26,2525.19 C2715.33,2517.43 2741.51,2501.52 2754.62,2493.37 C2767.66,2484.92 2793.70,2467.74 2806.79,2458.64 C2819.98,2449.18 2845.94,2429.46 2858.91,2419.38 C2872.00,2408.75 2896.10,2389.03 2907.11,2379.94 C2918.37,2370.46 2940.14,2351.27 2952.42,2339.45 C2957.30,2334.62 2983.82,2306.59 2994.62,2294.47 C3000.58,2287.58 3023.65,2258.16 3032.96,2245.54 C3039.40,2236.55 3058.64,2207.57 3066.95,2194.35 C3075.14,2180.81 3090.47,2153.52 3098.15,2139.54 C3105.43,2125.42 3119.56,2096.96 3126.41,2082.62 C3132.91,2068.16 3145.56,2039.28 3151.55,2024.66 C3157.36,2009.81 3168.71,1979.98 3173.85,1965.34 C3178.77,1950.41 3188.29,1920.26 3192.90,1905.04 C3196.99,1890.18 3204.54,1859.90 3208.21,1844.57 C3211.62,1828.93 3217.36,1798.68 3220.04,1783.63 C3222.47,1768.19 3227.06,1737.50 3229.06,1721.82 C3230.82,1705.89 3234.00,1674.13 3235.42,1658.28 C3236.55,1642.66 3238.06,1611.49 3238.70,1595.88 C3239.03,1580.87 3239.29,1549.86 3239.22,1533.86 C3238.78,1518.52 3237.67,1489.01 3236.45,1472.44 C3235.71,1464.64 3234.11,1449.63 3233.24,1442.41 C3230.64,1424.14 3225.54,1403.50 3223.12,1396.97 C3221.79,1393.46 3217.89,1386.57 3215.24,1383.60 C3214.36,1382.62 3211.51,1379.88 3210.84,1379.19 C3209.57,1377.93 3206.96,1376.55 3204.75,1376.07 C3202.76,1375.66 3195.14,1377.39 3193.11,1378.73 C3192.42,1379.20 3176.26,1394.82 3172.86,1398.43 C3159.61,1412.58 3150.84,1426.97 3142.91,1440.51 Z" fill="none" stroke="rgb(0, 0, 0)" stroke-width="44.05" stroke-opacity="1.00" stroke-linejoin="round"/>
<path d="M4952.42,4141.80 C4939.18,4119.91 4906.79,4066.07 4887.63,4034.11 C4879.26,4019.90 4861.98,3990.12 4853.06,3974.57 C4837.35,3945.93 4811.70,3895.70 4798.68,3869.74 C4791.87,3855.67 4778.39,3827.49 4771.72,3813.37 C4759.06,3785.23 4734.19,3728.46 4721.98,3699.83 C4716.13,3685.33 4704.47,3656.03 4698.66,3641.23 C4693.04,3626.44 4682.13,3597.18 4676.85,3582.70 C4671.81,3568.27 4661.81,3539.09 4656.85,3524.34 C4646.95,3493.49 4629.32,3433.70 4620.53,3403.01 C4616.39,3387.72 4608.40,3357.31 4604.54,3342.19 C4600.89,3327.09 4593.75,3296.87 4590.27,3281.75 C4586.93,3266.49 4580.48,3236.01 4577.37,3220.80 C4571.51,3189.58 4560.41,3127.47 4555.17,3096.58 C4550.53,3065.57 4541.81,3003.66 4537.72,2972.77 C4534.15,2941.22 4527.52,2878.35 4524.46,2847.04 C4521.98,2815.50 4517.55,2752.93 4515.60,2721.91 C4514.20,2690.28 4511.87,2627.35 4510.94,2596.05 C4510.54,2564.83 4510.16,2502.63 4510.20,2471.64 C4510.80,2439.53 4512.51,2376.16 4513.61,2344.90 C4514.39,2329.38 4516.10,2298.40 4517.03,2282.95 C4518.15,2267.65 4520.69,2236.60 4522.11,2220.86 C4523.75,2205.00 4527.20,2173.51 4529.02,2157.88 C4533.17,2126.76 4542.84,2065.38 4547.78,2035.59 C4550.29,2022.10 4555.41,1995.47 4558.03,1982.32 C4565.57,1949.61 4580.41,1887.38 4587.72,1857.88 C4596.13,1824.43 4612.45,1758.86 4620.36,1726.74 C4628.63,1692.02 4643.00,1630.39 4649.09,1603.48 C4653.01,1585.04 4658.87,1550.45 4659.19,1547.58 C4659.65,1542.98 4660.39,1535.24 4660.54,1525.89 C4660.62,1517.64 4660.70,1499.20 4660.13,1495.44 C4660.01,1494.70 4653.69,1474.48 4651.58,1467.47 C4649.40,1460.21 4642.82,1446.34 4640.91,1442.26 C4637.00,1434.29 4632.42,1425.53 4632.30,1425.42 C4632.16,1425.30 4632.02,1425.84 4631.86,1425.75 C4630.59,1425.14 4616.08,1402.35 4610.30,1393.26 C4594.11,1367.72 4557.32,1310.72 4536.72,1279.27 C4515.64,1248.46 4475.80,1191.09 4457.04,1164.52 C4436.65,1136.30 4396.30,1080.88 4376.34,1053.68 C4359.18,1030.57 4319.42,977.77 4296.82,948.09 C4275.52,921.42 4244.84,884.61 4223.69,860.11 C4214.53,849.87 4201.48,835.93 4184.49,819.62 C4178.76,814.26 4165.01,801.97 4161.61,799.24 C4155.57,794.45 4143.21,785.17 4136.91,780.73 C4127.69,774.53 4120.56,770.15 4110.81,764.73 C4103.92,761.10 4089.65,754.21 4082.28,750.98 C4072.40,746.78 4036.39,735.27 4024.63,732.41 C4016.39,730.41 3976.67,723.26 3964.81,722.01 C3949.52,720.62 3918.17,719.57 3902.58,719.57 C3894.85,719.82 3879.34,720.51 3871.56,720.94 C3863.80,721.55 3845.57,723.65 3841.03,724.40 C3835.74,725.28 3816.24,729.60 3808.18,731.73 C3801.08,733.74 3784.65,738.57 3778.05,741.06 C3774.74,742.31 3765.93,746.19 3765.68,746.30 C3764.62,746.76 3761.89,749.05 3757.99,751.20 C3754.33,753.24 3747.14,757.25 3743.61,759.23 C3742.50,759.83 3740.86,761.69 3736.39,764.77 C3729.27,769.57 3714.78,779.33 3707.42,784.30 C3698.80,790.20 3694.59,794.42 3688.93,799.30 C3674.78,811.23 3651.87,832.40 3639.54,844.05 C3634.36,849.05 3625.24,857.87 3621.88,861.72 C3616.89,867.20 3602.97,882.51 3601.28,884.46 C3598.07,888.19 3589.29,900.77 3587.97,902.50 C3579.39,913.61 3559.06,939.93 3547.32,955.14 C3537.77,967.77 3512.02,1002.80 3507.92,1009.53 C3501.81,1019.90 3488.23,1044.90 3481.19,1058.29 C3472.32,1076.18 3461.09,1101.45 3457.37,1110.68 C3451.63,1125.93 3441.53,1158.18 3436.74,1173.93 C3432.10,1190.11 3422.79,1222.83 3419.88,1234.92 C3418.01,1243.42 3417.04,1249.30 3416.81,1250.71" fill="none" stroke="rgb(0, 0, 0)" stroke-width="44.05" stroke-opacity="1.00" stroke-linejoin="round"/>
<path d="M6700.85,3135.06 C6700.85,3135.06 6704.99,3124.72 6704.99,3124.72 C6695.91,3145.81 6673.20,3199.20 6658.15,3236.66 C6647.08,3265.18 6625.04,3322.67 6614.08,3351.64 C6602.30,3382.95 6578.50,3445.30 6566.49,3476.34 C6556.23,3502.13 6536.02,3552.36 6526.07,3576.80 C6515.77,3601.43 6492.00,3656.48 6478.52,3686.89 C6460.92,3724.93 6429.46,3792.25 6415.60,3821.52 C6401.87,3850.11 6373.00,3909.94 6357.85,3941.17 C6341.29,3975.03 6307.27,4044.37 6289.81,4079.85 C6274.25,4111.45 6245.44,4169.99 6232.19,4196.93 C6221.25,4219.19 6199.29,4264.14 6188.27,4286.83 C6185.42,4293.04 6182.13,4300.21 6181.70,4301.16 C6185.50,4294.57 6199.60,4264.88 6206.94,4249.20 C6211.83,4238.33 6237.84,4177.67 6248.98,4151.62 C6262.64,4119.56 6290.79,4053.35 6305.28,4019.20 C6318.93,3986.89 6345.39,3924.12 6358.20,3893.65 C6370.17,3864.99 6393.29,3809.47 6404.43,3782.63 C6414.81,3757.40 6436.55,3703.96 6447.91,3675.75 C6460.94,3642.70 6487.02,3576.08 6500.06,3542.52 C6511.43,3512.95 6535.03,3451.34 6547.26,3419.30 C6560.35,3384.77 6587.23,3313.68 6601.02,3277.12 C6613.46,3244.05 6636.39,3183.05 6646.87,3155.11 C6651.39,3143.07 6659.92,3120.27 6663.94,3109.51 C6675.42,3078.74 6680.69,3060.55 6681.69,3057.05 C6677.33,3065.79 6667.57,3085.37 6657.39,3107.79 C6644.92,3136.86 6619.14,3197.72 6605.84,3229.51 C6592.26,3262.12 6567.46,3321.42 6556.24,3348.11 C6550.29,3362.02 6539.85,3386.23 6535.35,3396.52 C6529.63,3409.20 6494.48,3478.28 6478.01,3510.11 C6464.69,3535.53 6435.51,3591.00 6419.65,3621.07 C6401.59,3655.15 6366.91,3720.69 6350.28,3752.14 C6336.02,3779.22 6306.99,3834.54 6292.21,3862.79 C6274.27,3898.09 6248.02,3950.36 6239.72,3967.32 C6248.39,3951.58 6267.88,3916.17 6289.97,3872.03 C6305.78,3838.87 6334.15,3778.60 6346.72,3751.49 C6361.09,3720.07 6390.71,3654.94 6405.96,3621.23 C6419.66,3590.82 6445.37,3533.59 6457.38,3506.78 C6473.19,3471.11 6501.25,3407.13 6513.51,3378.83 C6523.77,3354.12 6545.57,3300.23 6557.12,3271.04 C6569.80,3237.28 6590.86,3180.92 6599.24,3158.33 C6588.77,3176.72 6581.04,3191.60 6574.04,3208.55 C6562.92,3236.33 6538.66,3298.05 6525.51,3331.99 C6514.80,3360.38 6495.39,3413.09 6486.68,3437.41 C6478.89,3459.86 6453.84,3527.40 6441.50,3560.20 C6431.92,3585.38 6411.10,3639.83 6399.88,3669.12 C6387.02,3702.51 6360.96,3770.17 6347.76,3804.44 C6335.53,3836.35 6312.02,3897.80 6300.74,3927.34 C6287.92,3961.17 6261.06,4032.47 6247.02,4069.93 C6235.38,4101.50 6214.31,4158.85 6204.89,4184.64 C6197.59,4204.71 6179.81,4254.84 6169.31,4284.90 C6169.10,4285.50 6168.89,4286.11 6168.68,4286.71 C6170.94,4283.73 6176.21,4271.39 6178.93,4264.88 C6187.67,4244.47 6206.96,4199.51 6217.50,4174.95 C6230.83,4143.94 6258.64,4079.15 6273.11,4045.38 C6287.29,4012.09 6315.13,3946.50 6328.80,3914.18 C6341.31,3884.40 6366.09,3825.23 6378.36,3795.84 C6390.39,3766.84 6414.29,3708.83 6426.17,3679.81 C6437.97,3650.49 6461.50,3591.53 6473.23,3561.89 C6486.32,3528.23 6512.41,3460.49 6525.41,3426.42 C6538.25,3392.16 6562.15,3328.23 6573.21,3298.57 C6581.84,3275.45 6599.63,3228.00 6608.79,3203.66 C6609.21,3202.56 6609.98,3200.56 6610.32,3199.67 C6602.02,3213.65 6591.72,3234.28 6584.47,3250.85 C6576.10,3270.56 6556.78,3316.17 6545.83,3342.07 C6532.33,3374.07 6504.40,3439.92 6489.97,3473.76 C6475.54,3507.05 6446.72,3572.93 6432.34,3605.53 C6418.18,3637.07 6389.84,3699.64 6375.66,3730.66 C6361.47,3761.15 6333.81,3820.36 6320.33,3849.09 C6307.95,3875.37 6283.19,3927.82 6270.80,3953.99 C6253.23,3990.81 6221.79,4056.30 6207.92,4084.96 C6198.09,4105.19 6182.41,4137.18 6176.56,4148.95 C6172.86,4156.53 6171.18,4162.11 6169.90,4167.67 C6176.86,4156.68 6194.02,4128.78 6200.07,4117.32 C6210.75,4097.00 6234.45,4051.76 6247.47,4026.85 C6262.84,3997.36 6295.93,3933.78 6313.65,3899.69 C6332.31,3863.70 6367.83,3795.11 6384.67,3762.51 C6399.63,3733.45 6427.64,3678.85 6440.70,3653.32 C6458.20,3618.68 6492.32,3549.88 6508.94,3515.73 C6517.70,3495.88 6536.20,3453.23 6545.95,3430.43 C6558.60,3400.16 6584.23,3338.36 6597.20,3306.83 C6602.47,3293.81 6614.30,3263.98 6620.85,3247.16 C6630.01,3221.92 6654.16,3153.76 6654.04,3152.28 C6653.90,3150.76 6652.50,3148.29 6651.32,3147.02 C6638.18,3164.37 6629.55,3177.20 6621.75,3191.10 C6616.85,3200.13 6606.29,3219.89 6600.64,3230.61 C6584.72,3262.33 6552.54,3327.63 6536.27,3361.22 C6525.19,3384.37 6501.68,3433.58 6489.25,3459.64 C6475.45,3488.60 6446.49,3549.43 6431.34,3581.30 C6414.82,3616.08 6380.42,3688.53 6362.54,3726.21 C6344.79,3763.63 6310.91,3835.06 6294.79,3869.06 C6280.28,3899.64 6252.90,3957.38 6240.02,3984.54 C6228.76,4008.28 6207.87,4052.35 6198.24,4072.67 C6194.03,4081.54 6178.52,4114.68 6176.67,4118.27 C6174.77,4121.95 6171.72,4127.01 6170.49,4129.03 C6182.17,4101.31 6202.96,4052.78 6212.06,4031.96 C6217.70,4019.15 6230.06,3991.38 6236.78,3976.42 C6254.54,3938.41 6284.95,3874.00 6297.60,3847.61 C6310.43,3821.15 6337.59,3765.46 6351.90,3736.23 C6367.24,3705.01 6397.43,3643.23 6412.28,3612.67 C6426.51,3582.96 6455.75,3521.47 6470.75,3489.67 C6486.69,3455.26 6517.65,3387.72 6532.66,3354.60 C6546.06,3324.54 6570.07,3270.67 6580.66,3246.85 C6590.59,3224.15 6604.79,3191.25 6609.06,3181.05 C6604.96,3187.74 6574.94,3261.57 6565.26,3285.53 C6552.58,3317.13 6527.06,3380.32 6514.23,3411.90 C6503.18,3438.54 6481.64,3489.94 6471.16,3514.71 C6458.63,3543.08 6429.13,3608.23 6412.15,3645.02 C6400.05,3670.72 6374.21,3725.26 6360.48,3754.11 C6345.11,3786.10 6313.71,3851.31 6297.67,3884.53 C6283.30,3914.29 6256.31,3970.14 6243.71,3996.23 C6227.92,4028.89 6196.55,4093.86 6180.95,4126.17 C6170.59,4148.08 6148.77,4195.44 6137.32,4220.89 C6130.91,4236.01 6118.71,4265.48 6113.44,4279.07 C6107.23,4295.87 6098.86,4322.54 6093.72,4343.00 C6092.23,4349.05 6090.22,4357.21 6089.70,4359.31 C6094.65,4349.99 6107.28,4326.14 6114.98,4311.61 C6123.51,4294.78 6138.97,4263.55 6145.91,4249.15 C6158.07,4222.51 6183.79,4164.72 6197.35,4133.56 C6209.67,4104.40 6234.51,4045.08 6247.01,4014.94 C6259.53,3984.35 6283.84,3924.52 6295.63,3895.27 C6308.17,3863.40 6331.58,3803.25 6342.45,3774.96 C6353.55,3745.57 6375.90,3685.63 6387.16,3655.08 C6391.86,3641.71 6402.03,3612.06 6408.04,3593.30 C6412.61,3577.88 6418.90,3556.61 6420.61,3550.75 C6416.99,3559.97 6407.86,3583.17 6402.36,3597.14 C6395.97,3614.06 6383.44,3650.09 6377.53,3667.66 C6371.09,3687.88 6357.28,3731.80 6349.92,3755.49 C6341.63,3782.65 6323.81,3840.80 6314.28,3871.80 C6302.96,3907.32 6278.53,3982.91 6265.42,4022.97 C6253.77,4057.88 6232.05,4122.55 6221.99,4152.32 C6211.22,4183.88 6188.96,4248.80 6177.48,4282.15 C6165.28,4317.30 6140.30,4389.07 6127.51,4425.70 C6115.57,4459.88 6092.98,4524.64 6082.32,4555.23 C6072.95,4582.21 6055.48,4632.57 6047.39,4655.95 C6043.83,4666.29 6036.04,4689.03 6031.83,4701.44 C6019.80,4739.04 6009.03,4775.19 6006.96,4782.17 C6015.15,4759.31 6035.45,4702.31 6047.57,4668.17 C6058.37,4636.68 6079.03,4575.36 6088.88,4545.54 C6093.48,4530.63 6102.36,4500.84 6106.65,4485.95 C6111.03,4469.34 6119.54,4435.44 6123.67,4418.15 C6130.58,4385.86 6142.93,4326.66 6148.38,4299.74 C6149.72,4292.37 6152.72,4258.43 6154.10,4241.33 C6156.63,4206.19 6161.49,4138.04 6163.83,4105.03 C6164.21,4099.73 6164.67,4093.28 6164.75,4092.14 C6164.07,4101.97 6162.30,4126.94 6160.47,4146.39 C6156.90,4176.35 6149.34,4235.72 6145.34,4265.13 C6139.85,4300.93 6128.78,4370.14 6123.19,4403.54 C6117.34,4436.71 6105.04,4505.06 6098.59,4540.24 C6092.82,4570.58 6080.09,4635.11 6073.12,4669.30 C6066.87,4697.25 6053.60,4747.45 6044.96,4777.60 C6044.78,4778.23 6044.60,4778.85 6044.42,4779.47 C6042.91,4778.61 6040.92,4776.69 6040.45,4775.31 C6039.73,4773.10 6048.41,4734.82 6051.10,4723.65 C6054.15,4711.58 6061.74,4683.05 6067.80,4662.28 C6077.06,4632.01 6095.26,4573.13 6104.21,4544.53 C6115.03,4510.24 6137.15,4439.96 6148.44,4403.98 C6157.99,4372.66 6175.30,4314.77 6183.06,4288.20 C6186.99,4274.11 6194.15,4247.76 6197.38,4235.50 C6203.50,4210.45 6207.61,4189.86 6210.58,4172.03 C6212.10,4162.85 6214.31,4149.62 6214.98,4145.57 C6212.68,4157.22 6207.00,4188.44 6204.33,4205.73 C6200.41,4232.68 6191.37,4295.69 6186.26,4331.76 C6181.22,4367.08 6171.58,4433.52 6166.99,4464.64 C6163.90,4484.42 6158.46,4517.94 6156.11,4531.68 C6153.74,4543.97 6148.49,4570.00 6145.61,4583.73 C6138.01,4616.62 6123.28,4678.80 6116.14,4708.09 C6113.80,4717.06 6108.74,4736.20 6107.68,4739.54 C6104.25,4750.24 6094.24,4769.07 6093.03,4771.35 C6094.69,4750.24 6096.99,4735.50 6101.16,4717.27 C6107.89,4689.34 6123.19,4626.71 6131.76,4592.01 C6139.82,4558.10 6155.61,4490.04 6163.34,4455.90 C6170.02,4424.62 6181.94,4367.00 6187.76,4335.21 C6191.39,4312.14 6193.76,4288.86 6194.88,4276.88 C6196.01,4261.76 6197.59,4239.78 6198.05,4232.93 C6195.67,4238.68 6193.60,4249.00 6192.44,4254.85 C6185.88,4292.31 6176.08,4343.37 6170.47,4372.57 C6166.99,4390.51 6159.88,4426.36 6156.24,4444.27 C6152.56,4461.22 6145.14,4494.16 6141.41,4510.15 C6137.00,4527.58 6127.48,4563.78 6122.34,4581.69 C6117.15,4598.75 6106.72,4629.85 6101.51,4644.73 C6096.50,4658.19 6086.92,4682.23 6082.35,4692.81 C6078.31,4701.94 6068.19,4721.14 6063.39,4728.28 C6061.15,4731.58 6045.71,4751.03 6043.93,4753.30 C6043.15,4748.41 6040.56,4732.46 6040.11,4728.13 C6038.88,4716.03 6039.71,4690.99 6040.77,4677.32 C6041.35,4671.32 6043.46,4655.48 6044.74,4646.61 C6052.74,4600.49 6063.31,4545.51 6069.14,4515.59 C6076.43,4479.20 6091.33,4405.27 6098.93,4367.73 C6105.01,4337.52 6116.47,4280.11 6121.85,4252.90 C6124.94,4235.65 6128.81,4210.62 6130.67,4198.41 C6134.53,4173.09 6136.59,4156.22 6136.60,4137.63 C6136.42,4124.22 6134.60,4089.46 6133.97,4077.99 C6130.96,4078.13 6123.78,4078.26 6121.44,4079.59 C6119.73,4080.59 6118.04,4082.40 6117.34,4083.78 C6113.92,4091.05 6110.99,4098.85 6109.01,4105.93 C6105.43,4118.81 6098.53,4158.90 6096.72,4170.58 C6092.70,4200.14 6084.62,4264.62 6080.55,4299.53 C6077.07,4335.25 6070.69,4406.99 6067.78,4443.00 C6065.36,4476.77 6061.02,4535.53 6059.12,4560.51 C6056.79,4581.56 6056.48,4591.17 6056.58,4602.85 C6060.27,4592.28 6070.42,4563.87 6076.88,4546.05 C6086.07,4522.11 6106.54,4469.00 6117.83,4439.84 C6131.61,4404.36 6158.59,4335.06 6171.77,4301.23 C6183.07,4272.32 6207.78,4209.15 6221.19,4174.89 C6232.60,4145.89 6253.66,4092.11 6263.31,4067.32 C6272.82,4042.35 6291.96,3991.72 6301.59,3966.06 C6306.78,3951.99 6317.65,3921.98 6323.33,3906.05 C6336.22,3868.33 6358.81,3801.21 6368.50,3771.80 C6379.21,3738.62 6401.51,3669.00 6413.09,3632.57 C6423.10,3600.89 6440.76,3544.91 6448.41,3520.61 C6449.95,3515.69 6452.92,3506.20 6455.74,3496.60 C6460.06,3481.44 6462.44,3473.95 6465.27,3468.85 C6468.54,3463.05 6478.15,3452.80 6481.10,3449.64 C6482.00,3454.45 6485.01,3470.20 6485.61,3474.63 C6486.77,3483.35 6487.53,3497.75 6487.71,3507.62 C6487.72,3519.35 6486.08,3556.03 6484.74,3573.52 C6483.26,3589.16 6479.37,3621.35 6477.25,3637.52 C6471.19,3677.03 6464.04,3712.47 6462.36,3720.66 C6468.84,3693.18 6479.35,3649.10 6489.95,3608.89 C6499.05,3574.68 6516.77,3509.18 6525.38,3477.88 C6529.20,3464.58 6536.62,3439.11 6540.21,3426.94 C6543.82,3415.33 6552.32,3389.46 6558.31,3372.81 C6572.46,3336.00 6597.83,3271.29 6609.05,3243.40 C6622.44,3210.80 6650.86,3142.13 6665.89,3106.07 C6678.93,3075.02 6702.34,3019.51 6712.71,2995.07 C6723.25,2970.42 6741.80,2934.19 6744.69,2928.56 C6745.57,2931.11 6748.13,2938.50 6748.66,2941.50 C6749.59,2947.01 6748.31,2956.62 6745.92,2969.42 C6741.00,2995.86 6729.50,3055.83 6721.68,3092.65 C6714.98,3121.84 6700.43,3183.32 6692.58,3215.62 C6688.63,3231.07 6680.47,3262.20 6676.28,3277.87 C6671.80,3293.77 6662.81,3324.96 6658.30,3340.25 C6648.99,3370.09 6629.82,3429.49 6619.97,3459.05 C6614.81,3473.87 6604.29,3503.52 6598.94,3518.34 C6593.31,3533.06 6581.59,3562.80 6575.50,3577.82 C6568.50,3594.06 6554.10,3626.55 6546.71,3642.82 C6539.79,3657.45 6527.30,3683.44 6521.73,3694.79 C6516.02,3706.08 6503.15,3724.00 6501.03,3726.96 C6496.90,3725.61 6489.33,3723.25 6487.10,3721.35 C6485.58,3720.02 6484.06,3717.63 6483.64,3716.13 C6482.88,3713.06 6482.56,3708.23 6482.86,3704.57 C6485.17,3682.07 6494.62,3612.07 6499.45,3578.05 C6503.23,3555.42 6511.30,3508.90 6518.09,3474.67 C6526.57,3434.46 6541.52,3364.53 6547.98,3334.81 C6555.66,3299.96 6571.94,3226.33 6580.55,3187.54 C6587.92,3154.13 6600.97,3094.63 6606.64,3068.56 C6610.92,3048.64 6613.20,3036.64 6615.29,3015.45 C6615.36,3014.78 6615.43,3014.10 6615.50,3013.42 C6614.11,3014.03 6610.24,3015.58 6610.15,3015.62 C6606.23,3017.44 6602.73,3021.62 6600.54,3025.53 C6597.85,3030.69 6585.73,3065.70 6582.37,3075.84 C6573.21,3103.92 6553.18,3166.15 6542.32,3200.30 C6532.33,3232.73 6513.16,3295.59 6503.98,3326.02 C6494.60,3357.18 6475.68,3417.97 6466.14,3447.60 C6460.94,3462.82 6450.10,3493.82 6444.47,3509.59 C6438.76,3524.80 6427.29,3554.69 6421.52,3569.37 C6415.60,3583.77 6403.59,3612.38 6397.49,3626.61 C6391.22,3640.66 6377.39,3670.82 6369.83,3686.93 C6354.13,3718.92 6324.91,3775.51 6311.86,3800.51 C6307.11,3809.52 6293.45,3833.08 6289.60,3839.66" fill="none" stroke="rgb(255, 255, 255)" stroke-width="48.09" stroke-opacity="1.00" stroke-linejoin="round"/>
</g>
</svg>
